<?xml version="1.0" encoding="utf-8"?>
<!-- Generator: Adobe Illustrator 26.5.0, SVG Export Plug-In . SVG Version: 6.00 Build 0)  -->
<svg version="1.1" id="Layer_1" xmlns="http://www.w3.org/2000/svg" xmlns:xlink="http://www.w3.org/1999/xlink" x="0px" y="0px"
	 viewBox="0 0 206.61 144.55" style="enable-background:new 0 0 206.61 144.55;" xml:space="preserve">
<style type="text/css">
	.st0{fill:#FFFFFF;}
	.st1{stroke:#000000;stroke-width:0.5;stroke-miterlimit:10;}
	.st2{fill:#CFD6ED;}
	.st3{fill:none;}
	.st4{fill:none;stroke:#000000;stroke-width:3;stroke-linecap:round;stroke-linejoin:round;stroke-miterlimit:10;}
	.st5{stroke:#000000;stroke-width:1.1;stroke-linecap:round;stroke-linejoin:round;stroke-miterlimit:10;}
	.st6{stroke:#000000;stroke-width:1.8;stroke-miterlimit:10;}
	.st7{stroke:#000000;stroke-width:1.8;stroke-linecap:round;stroke-linejoin:round;stroke-miterlimit:10;}
	.st8{stroke:#000000;stroke-width:2.1;stroke-miterlimit:10;}
	.st9{stroke:#000000;stroke-width:2.1;stroke-linecap:round;stroke-linejoin:round;stroke-miterlimit:10;}
</style>
<g>
	<circle class="st2" cx="62.94" cy="62.94" r="62.94"/>
	<g>
		<g>
			<g>
				<path class="st5" d="M195.02,58.15h-24.36v5.25h24.36c3.19,0,5.79,2.6,5.79,5.79v45.78c0,3.19-2.6,5.79-5.79,5.79h-7.15
					c-0.12,0-0.24,0.03-0.34,0.07c-1.28,0.17-2.28,1.26-2.28,2.59v12.16l-16.19-14.14c-0.42-0.36-0.92-0.58-1.46-0.63
					c-0.08-0.03-0.17-0.05-0.27-0.05h-59.51c-3.19,0-5.79-2.6-5.79-5.79v-6.83h-5.25v6.83c0,6.09,4.95,11.04,11.04,11.04h58.48
					l19.85,17.32c0.48,0.42,1.09,0.65,1.73,0.65c0.38,0,0.74-0.08,1.09-0.24c0.93-0.42,1.54-1.36,1.54-2.39v-15.35h4.52
					c6.09,0,11.04-4.95,11.04-11.04V69.2C206.06,63.11,201.11,58.15,195.02,58.15z"/>
			</g>
			<g>
				<circle cx="71.08" cy="60.67" r="6.93"/>
				<circle cx="102.89" cy="60.67" r="6.93"/>
				<circle cx="134.7" cy="60.67" r="6.93"/>
			</g>
			<g>
				<path class="st8" d="M55.71,122.71c-0.29,0-0.59-0.06-0.87-0.19c-0.75-0.34-1.23-1.09-1.23-1.91V99.16c0-1.16,0.94-2.1,2.1-2.1
					s2.1,0.94,2.1,2.1V116l21.09-18.42c0.87-0.76,2.2-0.67,2.96,0.2c0.76,0.87,0.67,2.2-0.2,2.96l-24.57,21.45
					C56.7,122.53,56.21,122.71,55.71,122.71z"/>
				<g>
					<path class="st9" d="M151.45,22.14H47.17C40.46,22.14,35,27.6,35,34.3v54.75c0,6.71,5.46,12.16,12.16,12.16h8.55v-4.19h-8.55
						c-4.39,0-7.97-3.58-7.97-7.97V34.3c0-4.39,3.58-7.97,7.97-7.97h104.28c4.39,0,7.97,3.58,7.97,7.97v54.75
						c0,4.39-3.58,7.97-7.97,7.97H80.29v4.19h71.16c6.71,0,12.16-5.46,12.16-12.16V34.3C163.61,27.6,158.15,22.14,151.45,22.14z"/>
				</g>
			</g>
		</g>
	</g>
</g>
</svg>
